<svg xmlns="http://www.w3.org/2000/svg" viewBox="0 0 72 60"><defs><style>.cls-1{fill:none;stroke:#373737;stroke-linecap:round;stroke-linejoin:round;stroke-width:2px;}.cls-2{fill:#373737;}</style></defs><title>temp-crafty-plus-passive</title><g id="Temperatur_CRAFTY" data-name="Temperatur CRAFTY"><g id="CRAFTY-Plus-Passive"><g id="ARC"><path class="cls-1" d="M42.83,4.54a8.35,8.35,0,0,0-13.66,0L8.48,34.08a8.17,8.17,0,0,0,2.1,11.45A8.32,8.32,0,0,0,15.31,47H56.69a8.22,8.22,0,0,0,6.83-12.92L42.83,4.54"/></g><g id="LINE"><polygon class="cls-2" points="38 26 48 26 48 30 38 30 38 40 34 40 34 30 24 30 24 26 34 26 34 16 38 16 38 26"/></g></g></g></svg>